<svg id="visual" viewBox="0 0 900 600" width="900" height="600" xmlns="http://www.w3.org/2000/svg" xmlns:xlink="http://www.w3.org/1999/xlink" version="1.1"><rect x="0" y="0" width="900" height="600" fill="#001220"></rect><path d="M0 337L21.5 322.2C43 307.3 86 277.7 128.8 267.5C171.7 257.3 214.3 266.7 257.2 266.5C300 266.3 343 256.7 385.8 264.3C428.7 272 471.3 297 514.2 312.7C557 328.3 600 334.7 642.8 321.7C685.7 308.7 728.3 276.3 771.2 263.7C814 251 857 258 878.5 261.5L900 265L900 601L878.5 601C857 601 814 601 771.2 601C728.3 601 685.7 601 642.8 601C600 601 557 601 514.2 601C471.3 601 428.7 601 385.8 601C343 601 300 601 257.2 601C214.3 601 171.7 601 128.8 601C86 601 43 601 21.5 601L0 601Z" fill="#cadae8"></path><path d="M0 303L21.5 318C43 333 86 363 128.8 372.5C171.7 382 214.3 371 257.2 365.5C300 360 343 360 385.8 350.3C428.7 340.7 471.3 321.3 514.2 328.2C557 335 600 368 642.8 379.8C685.7 391.7 728.3 382.3 771.2 377.3C814 372.3 857 371.7 878.5 371.3L900 371L900 601L878.5 601C857 601 814 601 771.2 601C728.3 601 685.7 601 642.8 601C600 601 557 601 514.2 601C471.3 601 428.7 601 385.8 601C343 601 300 601 257.2 601C214.3 601 171.7 601 128.8 601C86 601 43 601 21.5 601L0 601Z" fill="#b5cee4"></path><path d="M0 405L21.5 406.5C43 408 86 411 128.8 413.5C171.7 416 214.3 418 257.2 420C300 422 343 424 385.8 425.8C428.7 427.7 471.3 429.3 514.2 428.7C557 428 600 425 642.8 428.5C685.7 432 728.3 442 771.2 440.3C814 438.7 857 425.3 878.5 418.7L900 412L900 601L878.5 601C857 601 814 601 771.2 601C728.3 601 685.7 601 642.8 601C600 601 557 601 514.2 601C471.3 601 428.7 601 385.8 601C343 601 300 601 257.2 601C214.3 601 171.7 601 128.8 601C86 601 43 601 21.5 601L0 601Z" fill="#a0c3df"></path><path d="M0 498L21.5 488.7C43 479.3 86 460.7 128.8 449.7C171.7 438.7 214.3 435.3 257.2 440.2C300 445 343 458 385.8 465.2C428.7 472.3 471.3 473.7 514.2 474.7C557 475.7 600 476.3 642.8 473.2C685.7 470 728.3 463 771.2 465C814 467 857 478 878.5 483.5L900 489L900 601L878.5 601C857 601 814 601 771.2 601C728.3 601 685.7 601 642.8 601C600 601 557 601 514.2 601C471.3 601 428.7 601 385.8 601C343 601 300 601 257.2 601C214.3 601 171.7 601 128.8 601C86 601 43 601 21.5 601L0 601Z" fill="#8ab7da"></path><path d="M0 508L21.5 506.3C43 504.7 86 501.3 128.8 508.2C171.7 515 214.3 532 257.2 542.5C300 553 343 557 385.8 548.3C428.7 539.7 471.3 518.3 514.2 510.3C557 502.3 600 507.7 642.8 514.2C685.7 520.7 728.3 528.3 771.2 525.7C814 523 857 510 878.5 503.5L900 497L900 601L878.5 601C857 601 814 601 771.2 601C728.3 601 685.7 601 642.8 601C600 601 557 601 514.2 601C471.3 601 428.7 601 385.8 601C343 601 300 601 257.2 601C214.3 601 171.7 601 128.8 601C86 601 43 601 21.5 601L0 601Z" fill="#72acd5"></path></svg>